<?xml version="1.0"?>
<svg xmlns="http://www.w3.org/2000/svg" viewBox="-23 0 512 512" width="512px" height="512px"><path d="m448.792969 0h-31.042969c-9.683594 0-17.5625 7.878906-17.5625 17.566406v14.695313h-156.421875c-22.597656 0-44.421875 6.679687-63.113281 19.320312-3.429688 2.320313-4.332032 6.984375-2.011719 10.414063 1.449219 2.144531 3.8125 3.300781 6.21875 3.300781 1.449219 0 2.910156-.417969 4.195313-1.289063 16.203124-10.957031 35.121093-16.75 54.710937-16.75h156.417969v30.707032h-156.417969c-37.0625 0-67.214844 30.152344-67.214844 67.214844v7.96875h-30.707031v-7.96875c0-23.410157 8.429688-46.085938 23.738281-63.84375 2.703125-3.136719 2.351563-7.875-.785156-10.578126-3.136719-2.703124-7.871094-2.355468-10.578125.785157-17.652344 20.480469-27.375 46.632812-27.375 73.636719v7.96875h-17.117188c-12.925781 0-23.445312 10.519531-23.445312 23.445312v24.4375c-37.167969 8.003906-66.085938 38.640625-71.160156 77.136719-10.585938.277343-19.121094 8.957031-19.121094 19.609375v29.777344c0 10.828124 8.808594 19.636718 19.636719 19.636718h283.121093c10.828126 0 19.632813-8.808594 19.632813-19.636718v-29.777344c0-10.652344-8.53125-19.332032-19.121094-19.609375-5.070312-38.496094-33.992187-69.132813-71.160156-77.136719v-24.4375c0-12.925781-10.515625-23.445312-23.441406-23.445312h-17.117188v-7.96875c0-28.789063 23.421875-52.214844 52.214844-52.214844h156.417969v14.695312c0 9.6875 7.882812 17.566406 17.566406 17.566406h31.042969c9.683593 0 17.5625-7.878906 17.5625-17.566406v-90.09375c.003906-9.6875-7.875-17.566406-17.5625-17.566406zm-160.664063 278.144531h-116.449218c-4.140626 0-7.5 3.359375-7.5 7.5s3.359374 7.5 7.5 7.5h124.636718c.046875 0 .09375.007813.140625.007813.085938 0 .175781-.003906.261719-.007813h6.039062c2.554688 0 4.636719 2.078125 4.636719 4.632813v29.78125c0 2.554687-2.082031 4.632812-4.636719 4.632812h-283.121093c-2.558594 0-4.636719-2.078125-4.636719-4.632812v-29.78125c0-2.554688 2.078125-4.632813 4.636719-4.632813h124.042969c4.140624 0 7.5-3.359375 7.5-7.5s-3.359376-7.5-7.5-7.5h-109.414063c5.800781-36.566406 37.464844-64.175781 75.300781-64.175781h103.257813c37.839843 0 69.5 27.609375 75.304687 64.175781zm-71.015625-101.546875v22.472656c-1.421875-.0625-2.851562-.101562-4.285156-.101562h-103.261719c-1.433594 0-2.863281.039062-4.285156.101562v-22.472656c0-4.65625 3.789062-8.445312 8.445312-8.445312h24.609376.007812.011719 45.683593.011719.011719 24.605469c4.65625 0 8.445312 3.789062 8.445312 8.445312zm234.246094-68.933594c0 1.414063-1.152344 2.5625-2.566406 2.5625h-31.039063c-1.417968 0-2.566406-1.148437-2.566406-2.5625v-90.097656c0-1.417968 1.152344-2.566406 2.566406-2.566406h31.039063c1.417969 0 2.566406 1.152344 2.566406 2.566406zm0 0" fill="#515151"/><path d="m296.585938 380.863281c-4.140626 0-7.5 3.355469-7.5 7.5v37.703125c0 4.144532 3.359374 7.5 7.5 7.5 4.144531 0 7.5-3.355468 7.5-7.5v-37.703125c0-4.144531-3.355469-7.5-7.5-7.5zm0 0" fill="#515151"/><path d="m116.066406 380.863281c-4.140625 0-7.5 3.355469-7.5 7.5v37.703125c0 4.144532 3.359375 7.5 7.5 7.5 4.144532 0 7.5-3.355468 7.5-7.5v-37.703125c0-4.144531-3.355468-7.5-7.5-7.5zm0 0" fill="#515151"/><path d="m206.328125 380.863281c-4.144531 0-7.5 3.355469-7.5 7.5v37.703125c0 4.144532 3.355469 7.5 7.5 7.5 4.140625 0 7.5-3.355468 7.5-7.5v-37.703125c0-4.144531-3.359375-7.5-7.5-7.5zm0 0" fill="#515151"/><path d="m25.808594 380.863281c-4.144532 0-7.5 3.355469-7.5 7.5v37.703125c0 4.144532 3.355468 7.5 7.5 7.5 4.140625 0 7.5-3.355468 7.5-7.5v-37.703125c0-4.144531-3.359375-7.5-7.5-7.5zm0 0" fill="#515151"/><path d="m161.195312 459.296875c-4.140624 0-7.5 3.355469-7.5 7.5v37.703125c0 4.140625 3.359376 7.5 7.5 7.5 4.144532 0 7.5-3.359375 7.5-7.5v-37.703125c0-4.144531-3.355468-7.5-7.5-7.5zm0 0" fill="#515151"/><path d="m251.457031 459.296875c-4.140625 0-7.5 3.355469-7.5 7.5v37.703125c0 4.140625 3.359375 7.5 7.5 7.5s7.5-3.359375 7.5-7.5v-37.703125c0-4.144531-3.359375-7.5-7.5-7.5zm0 0" fill="#515151"/><path d="m70.9375 459.296875c-4.140625 0-7.5 3.355469-7.5 7.5v37.703125c0 4.140625 3.359375 7.5 7.5 7.5s7.5-3.359375 7.5-7.5v-37.703125c0-4.144531-3.359375-7.5-7.5-7.5zm0 0" fill="#515151"/></svg>
